<svg xmlns="http://www.w3.org/2000/svg" xmlns:xlink="http://www.w3.org/1999/xlink" viewBox="0 0 594 65.55">
  <defs>
    <style>
      .lithodomos{ fill: #414142 }
      .vr{ fill: #ed2227 }
    </style>
  </defs>
  <!-- LITHODOMOS -->
  <path class="lithodomos" d="M5.51 59.6h26.78v4.42H0V.91h5.51zm42.68 4.42h-5.51V.91h5.51zM99.61 5.5H81.07v58.52h-5.46V5.5H57.12V.91h42.49zm50.14 58.52h-5.4V34.94h-29.8v29.09h-5.46V.91h5.46v29.61h29.8V.91h5.42zm53.88-22.67q0 11.49-5.62 17.54t-15.42 6q-9.61 0-15.1-6T162 41.35V23.67q0-11.49 5.47-17.58T182.55 0q9.79 0 15.44 6.11t5.65 17.56zm-5.42-17.82q0-9.36-4.05-14.09t-11.61-4.73q-7.33 0-11.25 4.73t-3.95 14.1v17.82q0 9.49 3.92 14.22t11.29 4.73q7.56 0 11.59-4.73t4-14.22zm17.68 40.49V.91h16.26a21.16 21.16 0 0 1 16.9 7.72q6.56 7.72 6.56 19.81v8.15q0 12.14-6.56 19.79a21.23 21.23 0 0 1-16.9 7.65zm5.46-58.52v54.1h10.79a15.66 15.66 0 0 0 13-6.47q5-6.47 5-16.5v-8.29q0-9.94-5-16.39a15.68 15.68 0 0 0-13-6.45zm85.12 35.85q0 11.49-5.62 17.54t-15.42 6q-9.61 0-15.1-6t-5.49-17.54V23.67q0-11.49 5.47-17.58t15-6.09q9.79 0 15.44 6.11t5.65 17.56zm-5.42-17.82q0-9.36-4-14.09t-11.7-4.72q-7.33 0-11.25 4.73t-3.92 14.09v17.82q0 9.49 3.92 14.22t11.25 4.73q7.56 0 11.59-4.73t4-14.22zM325.47.91l18.45 55.27h.27L362.68.91h7.06v63.12h-5.39v-27.7l.55-25.79h-.27l-18.72 53.55h-3.64l-18.72-53.52h-.27l.55 25.71v27.7h-5.38V.91zm97.88 40.44q0 11.49-5.62 17.54t-15.42 6q-9.61 0-15.1-6t-5.49-17.54V23.67q0-11.49 5.47-17.58T402.35 0q9.79 0 15.44 6.11t5.56 17.56zm-5.42-17.82q0-9.36-4-14.09t-11.58-4.72q-7.33 0-11.25 4.73t-3.92 14.09v17.82q0 9.49 3.92 14.22t11.25 4.72q7.56 0 11.59-4.73t4-14.22zm48.59 25.07a11.54 11.54 0 0 0-3.17-8.42q-3.17-3.24-11.14-5.72-9.06-2.64-13.73-6.83a14.3 14.3 0 0 1-4.67-11.21 15.05 15.05 0 0 1 5.21-11.83Q444.23 0 452.48 0q8.65 0 13.91 5.42a17.79 17.79 0 0 1 5.12 13.22l-.14.26h-5.12a14.67 14.67 0 0 0-3.67-10.3q-3.67-4-10.09-4-6.24 0-9.7 3.34a11.14 11.14 0 0 0-3.46 8.37 10.43 10.43 0 0 0 3.35 7.87q3.35 3.19 11.36 5.57 8.84 2.6 13.41 7a15.54 15.54 0 0 1 4.58 11.68 14.76 14.76 0 0 1-5.4 12q-5.4 4.44-13.87 4.44a23 23 0 0 1-14.51-4.78q-6.17-4.77-5.94-13.83l.09-.26h5.1q0 7.42 4.49 10.92a16.94 16.94 0 0 0 10.77 3.51q6.19 0 10-3.26a10.86 10.86 0 0 0 3.76-8.57z"/>
  <!-- VR -->
  <path class="vr" d="M479.97 1.09h12.38l19.9 38.92 20.1-38.92h12l-32.23 64.46zM594 23.35v-1.79a20.56 20.56 0 0 0-2.36-9.23 15.76 15.76 0 0 0-3.76-4.9Q581.8 1 571.09 1h-18l-6.08 12.16h23.78q1.84 0 1.84.17a9 9 0 0 1 5.69 2.1 9.21 9.21 0 0 1 3.1 6.73q-.09.92-.35 2.27-2.42 6.66-9.19 6.66h-33.86l-6.08 12.16h23.49q7.7 0 12.46 3.37a19.25 19.25 0 0 1 8.36 16.47v1h12.73q0-14-8-22.43a19.92 19.92 0 0 0 7-4.72Q594 30.27 594 23.35z"/>
</svg>
